<svg width="53" height="32" viewBox="0 0 53 32" fill="none" xmlns="http://www.w3.org/2000/svg">
<path d="M52.9986 23.3947C52.87 23.9442 52.7662 24.5004 52.6071 25.0419C51.3509 29.3165 47.0885 32.27 42.6394 31.9598C37.7848 31.6215 33.9375 28.2709 33.3592 23.7303C32.8722 19.9063 34.3179 16.8271 37.5427 14.5581C37.8568 14.3375 37.9204 14.177 37.7655 13.8361C37.2591 12.721 36.7902 11.5912 36.3046 10.468C36.2465 10.333 36.1731 10.2033 36.0818 10.0228C34.8921 11.6019 33.7341 13.1395 32.5762 14.6771C30.483 17.4568 28.3788 20.2299 26.3036 23.023C25.836 23.6527 25.2813 23.9442 24.4747 23.9241C22.9917 23.888 21.5072 23.9215 20.0228 23.9081C19.7073 23.9054 19.5925 23.9883 19.5206 24.3079C18.5937 28.3698 15.5169 31.1857 11.2808 31.8796C6.00569 32.7433 0.680806 28.8512 0.0720898 23.6901C-0.540777 18.4917 2.80716 14.0112 8.09055 13.0218C10.5254 12.5659 12.8192 13.0285 15.0105 14.2653C15.4311 13.7946 15.8558 13.3213 16.2792 12.8453C16.7855 12.2757 17.3043 11.7142 17.783 11.1232C17.8895 10.9908 17.9393 10.7194 17.8757 10.5683C17.3085 9.22591 16.6997 7.89822 16.1256 6.55715C16.0052 6.27637 15.8406 6.17877 15.5432 6.19749C15.2693 6.21487 14.9898 6.21086 14.7159 6.18278C13.8692 6.09587 13.2854 5.46211 13.2992 4.6679C13.3131 3.87636 13.9232 3.23458 14.7712 3.21051C16.0122 3.17575 17.2559 3.1958 18.4982 3.19447C19.4473 3.19447 20.3963 3.18644 21.3453 3.19714C22.358 3.20784 23.0581 3.83224 23.0553 4.69999C23.0511 5.56774 22.3525 6.18412 21.337 6.20016C20.702 6.21086 20.067 6.2015 19.3421 6.2015C19.8277 7.29922 20.2773 8.31939 20.738 9.36229C25.2882 8.21644 29.8024 7.07861 34.3484 5.93409C34.0316 5.19603 33.73 4.50745 33.4394 3.81352C33.0064 2.78265 33.3993 1.96438 34.4922 1.61006C36.0279 1.11134 37.5635 0.612617 39.0991 0.117907C40.0994 -0.204322 40.982 0.149997 41.2684 0.984318C41.5603 1.83335 41.0913 2.63023 40.1035 2.95647C39.0493 3.3041 37.9937 3.64505 36.8898 4.00472C37.2273 4.79091 37.5455 5.52629 37.8609 6.263C38.774 8.38892 39.694 10.5122 40.5919 12.6434C40.7385 12.9911 40.8852 13.1207 41.3057 13.0405C46.7662 11.9869 52.1492 15.7213 52.899 21.0615C52.9198 21.2059 52.9654 21.3476 53 21.4907C53 22.1258 53 22.7609 53 23.396L52.9986 23.3947ZM39.1821 17.1707C36.8842 18.5572 35.3707 22.1713 37.1194 25.4256C38.8266 28.6025 42.8054 29.87 46.1174 28.2963C49.4113 26.7319 50.8128 22.8598 49.2509 19.6362C47.9684 16.9888 44.2455 15.1143 42.0721 16.0409C42.1427 16.2093 42.2105 16.3791 42.2824 16.5476C43.0295 18.2871 43.7849 20.024 44.5209 21.7688C44.8861 22.6339 44.5292 23.4856 43.7019 23.8091C42.8967 24.1247 42.0459 23.7637 41.6668 22.932C41.4302 22.4133 41.2144 21.8865 40.9889 21.3637C40.3871 19.9678 39.7853 18.5732 39.1821 17.1707ZM12.9271 16.6292C10.6693 15.3122 7.34487 15.7427 5.28907 17.5852C3.04373 19.5974 2.44332 22.7154 3.79633 25.3347C5.13135 27.9192 8.10161 29.3847 10.9847 28.8793C13.6672 28.4099 16.1339 26.1557 16.3663 23.9134H15.8074C13.8913 23.9134 11.9766 23.9188 10.0606 23.9081C9.77282 23.9068 9.46293 23.88 9.20422 23.773C8.23443 23.3666 8.00616 22.2087 8.73108 21.3797C10.1131 19.7993 11.5104 18.231 12.9271 16.6292ZM32.5471 9.61098C32.5264 9.57756 32.5056 9.54547 32.4849 9.51204C28.9972 10.3905 25.5081 11.2689 21.9748 12.1594C23.0511 14.5915 24.0998 16.9621 25.1775 19.3955C27.6608 16.097 30.104 12.8533 32.5471 9.60965V9.61098ZM13.2729 20.865H22.4466C21.4228 18.5505 20.4212 16.2869 19.3892 13.9551C17.3444 16.2655 15.3357 18.5345 13.2729 20.865Z" fill="#80AAF8"/>
</svg>
